<svg xmlns="http://www.w3.org/2000/svg" viewBox="0 0 96 96" role="img" aria-label="FixEase logo">
  <defs>
    <linearGradient id="g" x1="0%" y1="0%" x2="100%" y2="100%">
      <stop offset="0%" stop-color="#14b8a6"/>
      <stop offset="100%" stop-color="#0f766e"/>
    </linearGradient>
  </defs>
  <rect width="96" height="96" rx="28" fill="url(#g)"/>
  <path d="M48 14c-8 12-18 21-18 34a18 18 0 0 0 36 0c0-13-10-22-18-34Z" fill="#f8fafc"/>
  <path d="M60 43l10-10a3.5 3.5 0 0 1 5 0l1.5 1.5a3.5 3.5 0 0 1 0 5l-10 10 3.5 3.5a2 2 0 0 1 0 2.8l-4.7 4.7a2 2 0 0 1-2.8 0L49 49.5a2 2 0 0 1 0-2.8l4.7-4.7a2 2 0 0 1 2.8 0L60 43Z" fill="#0f172a"/>
  <path d="M57 51l-8-8" stroke="#f8fafc" stroke-width="2.8" stroke-linecap="round"/>
</svg>
